<?xml version="1.0" encoding="utf-8"?>
<!-- Generator: Adobe Illustrator 27.0.0, SVG Export Plug-In . SVG Version: 6.00 Build 0)  -->
<!DOCTYPE svg PUBLIC "-//W3C//DTD SVG 1.1//EN" "http://www.w3.org/Graphics/SVG/1.1/DTD/svg11.dtd" [
	<!ENTITY ns_extend "http://ns.adobe.com/Extensibility/1.0/">
	<!ENTITY ns_ai "http://ns.adobe.com/AdobeIllustrator/10.0/">
	<!ENTITY ns_graphs "http://ns.adobe.com/Graphs/1.0/">
	<!ENTITY ns_vars "http://ns.adobe.com/Variables/1.0/">
	<!ENTITY ns_imrep "http://ns.adobe.com/ImageReplacement/1.0/">
	<!ENTITY ns_sfw "http://ns.adobe.com/SaveForWeb/1.0/">
	<!ENTITY ns_custom "http://ns.adobe.com/GenericCustomNamespace/1.0/">
	<!ENTITY ns_adobe_xpath "http://ns.adobe.com/XPath/1.0/">
]>
<svg version="1.1" id="图层_1" xmlns:x="&ns_extend;" xmlns:i="&ns_ai;" xmlns:graph="&ns_graphs;"
	 xmlns="http://www.w3.org/2000/svg" xmlns:xlink="http://www.w3.org/1999/xlink" x="0px" y="0px" viewBox="0 0 841.9 595.3"
	 style="enable-background:new 0 0 841.9 595.3;" xml:space="preserve">
<style type="text/css">
	.st0{fill:#F7D781;}
	.st1{fill:#FFFFFF;}
</style>
<metadata>
	<sfw  xmlns="&ns_sfw;">
		<slices></slices>
		<sliceSourceBounds  bottomLeftOrigin="true" height="118.7" width="413.5" x="214.2" y="-357"></sliceSourceBounds>
	</sfw>
</metadata>
<g>
	<path class="st0" d="M365.4,318.5l-16.9,16.9c-0.5,0.5-1.3,0.8-2,0.8s-1.5-0.3-2-0.8l-16.9-16.9c-2.4-2.4-3.7-5.6-3.7-9
		s1.3-6.6,3.7-9c2.4-2.4,5.6-3.7,9-3.7c3.4,0,6.6,1.3,9,3.7c0.3,0.3,0.6,0.6,0.9,1c0.3-0.3,0.6-0.7,0.9-1c2.4-2.4,5.6-3.7,9-3.7
		c3.4,0,6.6,1.3,9,3.7C370.4,305.4,370.4,313.5,365.4,318.5z M402.6,323.4c-2.1-2.1-4.8-3.2-7.8-3.2c-2.9,0-5.7,1.1-7.8,3.2
		c-0.3,0.3-0.5,0.5-0.8,0.8c-0.2-0.3-0.5-0.6-0.8-0.8c-2.1-2.1-4.8-3.2-7.8-3.2c-2.9,0-5.7,1.1-7.8,3.2c-2.1,2.1-3.2,4.8-3.2,7.8
		s1.1,5.7,3.2,7.8l14.5,14.5c0.5,0.5,1.1,0.7,1.7,0.7s1.3-0.3,1.7-0.7l14.5-14.5C406.9,334.6,406.9,327.7,402.6,323.4z M448.1,331.4
		c-1.7-1.7-4-2.7-6.5-2.7c-2.4,0-4.7,1-6.5,2.7c-0.2,0.2-0.4,0.5-0.6,0.7c-0.2-0.2-0.4-0.5-0.6-0.7c-1.7-1.7-4-2.7-6.5-2.7
		c-2.4,0-4.7,1-6.5,2.7c-1.7,1.7-2.7,4-2.7,6.5s1,4.7,2.7,6.5l12.1,12.1c0.4,0.4,0.9,0.6,1.4,0.6s1.1-0.2,1.4-0.6l12.1-12.1
		C451.7,340.7,451.7,334.9,448.1,331.4z M492.9,327.1c-1.4-1.4-3.2-2.1-5.2-2.1c-2,0-3.8,0.8-5.2,2.1c-0.2,0.2-0.3,0.4-0.5,0.6
		c-0.2-0.2-0.3-0.4-0.5-0.6c-1.4-1.4-3.2-2.1-5.2-2.1c-2,0-3.8,0.8-5.2,2.1c-1.4,1.4-2.1,3.2-2.1,5.2s0.8,3.8,2.1,5.2l9.7,9.7
		c0.3,0.3,0.7,0.5,1.2,0.5s0.9-0.2,1.2-0.5l9.7-9.7C495.8,334.6,495.8,329.9,492.9,327.1z M527.9,313.3c-1-1-2.4-1.6-3.9-1.6
		c-1.5,0-2.8,0.6-3.9,1.6c-0.1,0.1-0.3,0.3-0.4,0.4c-0.1-0.1-0.2-0.3-0.4-0.4c-1-1-2.4-1.6-3.9-1.6c-1.5,0-2.8,0.6-3.9,1.6
		c-1,1-1.6,2.4-1.6,3.9s0.6,2.8,1.6,3.9l7.3,7.3c0.2,0.2,0.5,0.4,0.9,0.4s0.6-0.1,0.9-0.4l7.3-7.3C530,318.9,530,315.4,527.9,313.3z
		 M544,292.8c-0.7-0.7-1.6-1.1-2.6-1.1c-1,0-1.9,0.4-2.6,1.1c-0.1,0.1-0.2,0.2-0.3,0.3c-0.1-0.1-0.2-0.2-0.3-0.3
		c-0.7-0.7-1.6-1.1-2.6-1.1c-1,0-1.9,0.4-2.6,1.1c-0.7,0.7-1.1,1.6-1.1,2.6s0.4,1.9,1.1,2.6l4.8,4.8c0.2,0.2,0.4,0.2,0.6,0.2
		s0.4-0.1,0.6-0.2l4.8-4.8C545.4,296.6,545.4,294.2,544,292.8z"/>
	<g>
		<path class="st1" d="M253.1,253.3c-3.4,0-6.7,1.3-9,3.6c-1.3,1.3-2,2.9,0.6,4.5c1.6,1.1,2.5,0.4,3.4-0.5c1.2-1.3,3-2.1,5-2.1
			c3.8,0,7.3,3.1,7.5,7.7h-16c-1.6,0-2.8,1.3-2.8,2.8c0,8.4,5.1,14.3,12.3,14.3c7,0,12.5-6.4,12.5-14.8
			C266.6,259.8,261.6,253.3,253.1,253.3z M254.1,278.1c-3.9,0-5.9-3.3-6.4-6.4h12.6C259.7,275.4,257.3,278.1,254.1,278.1z
			 M278.2,240.6v40.7c0,1.7-1,2.3-2.9,2.3c-1.9,0-2.9-0.6-2.9-2.3v-40.7c0-1.7,1-2.3,2.9-2.3C277.2,238.3,278.2,238.9,278.2,240.6z
			 M245.1,245.1h-11v36c0,1.9-1.1,2.5-3.3,2.5c-2.2,0-3.3-0.7-3.3-2.5v-36h-11c-1.7,0-2.4-1-2.4-3.1s0.6-3.1,2.4-3.1h28.5
			c1.7,0,2.4,1,2.4,3.1S246.8,245.1,245.1,245.1z M306.8,282.7c-1.6,1.1-2.8,1.2-3.7-0.2l-8.6-12.3l-4.1,4.3v6.8
			c0,1.7-1,2.3-2.9,2.3s-2.9-0.6-2.9-2.3v-40.7c0-1.7,1-2.3,2.9-2.3s2.9,0.6,2.9,2.3v25.9l11.9-12.5c1.1-1.1,2.1-0.9,3.5,0.4
			c1.3,1.3,1.6,2.3,0.5,3.5l-7.7,8.1l9.3,13.3C308.8,280.5,308.4,281.6,306.8,282.7z"/>
		<g>
			<path class="st1" d="M377.1,253.3c-7,0-12.5,6.4-12.5,14.8c0,9,5.1,15.5,13.6,15.5c3.4,0,6.7-1.3,9-3.6c1.3-1.3,2-2.9-0.6-4.5
				c-1.6-1.1-2.5-0.4-3.4,0.5c-1.2,1.3-3,2.1-5,2.1c-3.8,0-7.3-3.1-7.5-7.7h16c1.6,0,2.8-1.3,2.8-2.8
				C389.4,259.1,384.3,253.3,377.1,253.3z M370.8,265c0.7-3.6,3.1-6.4,6.2-6.4c3.9,0,5.9,3.3,6.4,6.4H370.8z M445.3,253.3
				c-7,0-12.5,6.4-12.5,14.8c0,9,5.1,15.5,13.6,15.5c3.4,0,6.7-1.3,9-3.6c1.3-1.3,2-2.9-0.6-4.5c-1.6-1.1-2.5-0.4-3.4,0.5
				c-1.2,1.3-3,2.1-5,2.1c-3.8,0-7.3-3.1-7.5-7.7h16c1.6,0,2.8-1.3,2.8-2.8C457.6,259.1,452.6,253.3,445.3,253.3z M439.1,265
				c0.7-3.6,3.1-6.4,6.2-6.4c3.9,0,5.9,3.3,6.4,6.4H439.1z M427.8,264.9v16.4c0,1.7-1,2.3-2.9,2.3c-1.9,0-2.9-0.6-2.9-2.3v-16.4
				c0-5.2-2.5-6.1-4.2-6.1c-1.5,0-4.2,0.9-4.2,6.1v16.4c0,1.7-1,2.3-2.9,2.3c-1.9,0-2.9-0.6-2.9-2.3v-16.4c0-5.2-2.6-6.1-4.2-6.1
				c-1.7,0-4.2,0.9-4.2,6.1v16.4c0,1.7-1,2.3-2.9,2.3c-1.9,0-2.9-0.6-2.9-2.3v-16.4c0-8,5-11.6,10-11.6c2.8,0,5.5,1.4,7.1,3.6
				c1.6-2.2,4.3-3.6,7.1-3.6C422.8,253.3,427.8,256.8,427.8,264.9z M484.8,238.3c-1.9,0-2.9,0.6-2.9,2.3v16.7c-1.1-1.9-4.2-4-7.9-4
				c-7,0-12.8,4.8-12.8,14.8c0,9,5.1,15.5,13.6,15.5v0c7.5,0,13-5.5,13-15.2v-27.8C487.8,238.9,486.8,238.3,484.8,238.3z
				 M474.8,278.1c-3.8,0-7.5-3.3-7.5-10c0-7.1,4-9.4,7.2-9.4c5.1,0,7.5,3.9,7.5,9.7C481.9,271.3,481.2,278.1,474.8,278.1z
				 M517,255.5v30.3c0,7.9-6.7,11.6-12.9,11.6c-3.4,0-7.5-1.3-9.7-3.6c-1.3-1.3-2-2.9,0.6-4.5c1.6-1.1,2.4-0.4,3.4,0.5
				c1.4,1.3,3.4,2.1,5.7,2.1c2.3,0,7-1.1,7-6.1V281c-1.1,1.3-3.7,2.5-6.3,2.5c-5.9,0-12.1-3.9-12.1-11.6v-16.4c0-1.7,1-2.3,2.9-2.3
				c1.9,0,2.9,0.6,2.9,2.3v16.4c0,4.9,4.4,6.1,6.3,6.1c1.9,0,6.3-1.2,6.3-6.1v-16.4c0-1.7,1-2.3,2.9-2.3
				C516,253.3,517,253.9,517,255.5z"/>
			<path class="st0" d="M352.9,269.9c-0.4-0.4-0.4-1,0-1.4l5.3-5.3c6-6,5.7-15.8-0.8-21.4c-2.5-2.2-5.7-3.4-9.1-3.5
				c-4-0.1-7.9,1.4-10.7,4.2c-2.9,2.8-4.3,6.7-4.3,10.7l0,19.1l-13.6-13.6c-1.4-1.4-2.3-3.2-2.5-5.2c-0.2-3.1,1.2-6,4-7.6
				c0.6-0.4,1.3-0.7,2-0.8c2.9-0.7,5.7,0.1,7.7,2.1c0.1,0.1,0.2,0.3,0.3,0.4c0.7-2.2,1.8-4.2,3.3-5.9c-2.6-2.2-5.9-3.4-9.3-3.4
				c-3.9,0-7.6,1.5-10.3,4.3c-2.8,2.8-4.3,6.4-4.3,10.3s1.5,7.6,4.3,10.3l19.4,19.4c0.6,0.6,1.5,1,2.3,1c0.5,0,1.1-0.1,1.6-0.4
				c1.1-0.6,1.7-1.8,1.7-3l0-27.1c0-2,0.6-3.9,1.9-5.4c2-2.3,5.1-3.3,8.1-2.6c0.7,0.2,1.4,0.4,2,0.8c4.8,2.8,5.3,9.1,1.7,12.7
				l-4.8,4.8c-2.9,2.9-2.9,7.7,0,10.7l8.8,8.8c1.2,1.2,2.3,0.9,3.7-0.5c1.4-1.4,1.6-2.5,0.5-3.7L352.9,269.9z"/>
		</g>
		<path class="st1" d="M570.6,253.3c-3.4,0-6.7,1.3-9,3.6c-1.3,1.3-2,2.9,0.6,4.5c1.6,1.1,2.5,0.4,3.4-0.5c1.2-1.3,3-2.1,5-2.1
			c3.8,0,7.3,3.1,7.5,7.7h-16c-1.6,0-2.8,1.3-2.8,2.8c0,8.4,5.1,14.3,12.3,14.3c7,0,12.5-6.4,12.5-14.8
			C584.2,259.8,579.1,253.3,570.6,253.3z M571.7,278.1c-3.9,0-5.9-3.3-6.4-6.4h12.6C577.2,275.4,574.8,278.1,571.7,278.1z
			 M627.7,267.5c0-8.4-5.1-14.3-12.3-14.3c-7,0-12.5,6.4-12.5,14.8c0,9,5.1,15.5,13.6,15.5c3.4,0,6.7-1.3,9-3.6
			c1.3-1.3,2-2.9-0.6-4.5c-1.6-1.1-2.5-0.4-3.4,0.5c-1.2,1.3-3,2.1-5,2.1c-3.8,0-7.3-3.1-7.5-7.7h16
			C626.4,270.4,627.7,269.1,627.7,267.5z M609.2,265c0.7-3.6,3.1-6.4,6.2-6.4c3.9,0,5.9,3.3,6.4,6.4H609.2z M601.5,256
			c0,1.8-0.6,2.8-2.3,2.8v0c-1.7,0-4.2,0.9-4.2,6.1v16.4c0,1.7-1,2.3-2.9,2.3c-1.9,0-2.9-0.6-2.9-2.3v-16.4c0-8,5-11.6,10-11.6v0
			C600.9,253.3,601.5,254.2,601.5,256z M554.8,277c-3.3,4.2-8.4,6.6-14.6,6.6c-11.3,0-18.9-8.8-18.9-22.6c0-14.3,7.6-22.6,18.7-22.6
			c5.2,0,10.4,2.4,14,6.8c1.1,1.4,1.7,3.1-0.5,4.6c-2.3,1.7-3.4,0.9-4.6-0.5c-2-2.3-4.9-4.7-9.3-4.7c-7.1,0-11.4,6.6-11.4,15.9
			c0,8.6,3.4,17,12.7,17c5,0,7.9-3.2,8.8-4.5c1.1-1.4,2.1-2.1,4.6-0.5C556.6,273.9,556,275.6,554.8,277z"/>
	</g>
</g>
</svg>
